<svg width="38" height="38" viewBox="0 0 38 38" fill="none" xmlns="http://www.w3.org/2000/svg">
<path opacity="0.5" d="M18.8805 7.7356C15.9719 7.7356 14.1353 10.9921 10.4619 17.505L10.0042 18.3166C6.95165 23.7288 5.42538 26.4349 6.80481 28.4136C8.18425 30.3923 11.5971 30.3923 18.4227 30.3923H19.3382C26.1639 30.3923 29.5767 30.3923 30.9562 28.4136C32.3356 26.4349 30.8093 23.7288 27.7568 18.3166L27.2991 17.505C23.6257 10.9921 21.789 7.7356 18.8805 7.7356Z" fill="#FF3900"/>
<path d="M18.8805 13.0851C19.4019 13.0851 19.8246 13.5077 19.8246 14.0291V20.3226C19.8246 20.844 19.4019 21.2667 18.8805 21.2667C18.3592 21.2667 17.9365 20.844 17.9365 20.3226V14.0291C17.9365 13.5077 18.3592 13.0851 18.8805 13.0851Z" fill="#FF3900"/>
<path d="M18.8805 25.3574C19.5757 25.3574 20.1392 24.7939 20.1392 24.0987C20.1392 23.4036 19.5757 22.84 18.8805 22.84C18.1854 22.84 17.6218 23.4036 17.6218 24.0987C17.6218 24.7939 18.1854 25.3574 18.8805 25.3574Z" fill="#FF3900"/>
</svg>
