<svg width="34" height="34" viewBox="0 0 34 34" fill="none" xmlns="http://www.w3.org/2000/svg">
<path fill-rule="evenodd" clip-rule="evenodd" d="M26.2672 11.0773C26.2672 11.5322 25.8985 11.9009 25.4436 11.9009L7.87312 11.9009C7.41825 11.9009 7.0495 11.5322 7.0495 11.0773C7.0495 10.6225 7.41825 10.2537 7.87312 10.2537L25.4436 10.2537C25.8985 10.2537 26.2672 10.6225 26.2672 11.0773Z" fill="#F2F6FA"/>
<path fill-rule="evenodd" clip-rule="evenodd" d="M26.2672 16.5681C26.2672 17.0229 25.8985 17.3917 25.4436 17.3917L7.87312 17.3917C7.41825 17.3917 7.0495 17.0229 7.0495 16.5681C7.0495 16.1132 7.41825 15.7445 7.87312 15.7445L25.4436 15.7445C25.8985 15.7445 26.2672 16.1132 26.2672 16.5681Z" fill="#F2F6FA"/>
<path fill-rule="evenodd" clip-rule="evenodd" d="M26.2672 22.0589C26.2672 22.5137 25.8985 22.8825 25.4436 22.8825L7.87312 22.8825C7.41825 22.8825 7.0495 22.5137 7.0495 22.0589C7.0495 21.604 7.41825 21.2352 7.87312 21.2352L25.4436 21.2352C25.8985 21.2352 26.2672 21.604 26.2672 22.0589Z" fill="#F2F6FA"/>
</svg>
