<svg width="132" height="54" viewBox="0 0 132 54" fill="none" xmlns="http://www.w3.org/2000/svg">
<path d="M74.106 35.494C73.4713 35.494 72.9387 35.222 72.508 34.678C72.0773 34.1567 71.76 33.5107 71.556 32.74C71.352 31.9693 71.25 31.2327 71.25 30.53C71.25 29.17 71.4427 27.6627 71.828 26.008C72.2133 24.3533 72.6893 22.6647 73.256 20.942C73.8453 19.2193 74.446 17.5647 75.058 15.978C75.6927 14.3687 76.2593 12.918 76.758 11.626C77.2567 10.334 77.608 9.30267 77.812 8.532C77.8573 8.328 77.8913 8.14667 77.914 7.988C77.9367 7.80667 77.948 7.65933 77.948 7.546C77.948 7.138 77.8233 6.934 77.574 6.934C77.2113 6.934 76.6673 7.308 75.942 8.056C75.2167 8.78133 74.4007 9.77867 73.494 11.048C72.61 12.2947 71.726 13.7113 70.842 15.298C69.958 16.8847 69.1647 18.528 68.462 20.228C67.782 21.9053 67.306 23.5487 67.034 25.158C66.9433 25.7473 66.7847 26.1893 66.558 26.484C66.354 26.7787 66.15 26.926 65.946 26.926C65.7647 26.926 65.606 26.8127 65.47 26.586C65.334 26.3593 65.266 26.0307 65.266 25.6C65.2433 23.7867 65.1867 21.9733 65.096 20.16C65.0053 18.324 64.8013 16.5673 64.484 14.89C64.008 12.306 63.464 10.47 62.852 9.382C62.2627 8.294 61.6507 7.75 61.016 7.75C60.4267 7.75 59.8487 8.11267 59.282 8.838C58.738 9.54067 58.2167 10.4813 57.718 11.66C57.2193 12.816 56.7773 14.0853 56.392 15.468C56.0067 16.8507 55.7007 18.222 55.474 19.582C55.27 20.942 55.168 22.1547 55.168 23.22C55.168 23.4693 55.168 23.7187 55.168 23.968C55.1907 24.1947 55.2133 24.41 55.236 24.614C55.2587 24.7273 55.27 24.852 55.27 24.988C55.27 25.1013 55.27 25.2147 55.27 25.328C55.27 25.8493 55.202 26.314 55.066 26.722C54.93 27.13 54.7713 27.334 54.59 27.334C54.4087 27.334 54.2387 27.13 54.08 26.722C53.8987 26.314 53.7513 25.804 53.638 25.192C53.5247 24.5573 53.434 24.0247 53.366 23.594C53.3207 23.2767 53.2187 22.8007 53.06 22.166C52.924 21.5313 52.754 20.84 52.55 20.092C52.346 19.3213 52.108 18.5733 51.836 17.848C51.5867 17.1 51.3147 16.4653 51.02 15.944C50.7253 15.4 50.4193 15.0487 50.102 14.89C50.0567 14.8447 50.034 14.7993 50.034 14.754C50.034 14.6407 50.1473 14.5727 50.374 14.55C50.6233 14.5273 50.7933 14.5387 50.884 14.584C51.36 14.72 51.7793 15.06 52.142 15.604C52.5273 16.1253 52.856 16.7487 53.128 17.474C53.4227 18.1767 53.672 18.8793 53.876 19.582C54.08 20.262 54.25 20.8287 54.386 21.282C54.6353 19.718 54.93 18.1767 55.27 16.658C55.6327 15.1167 56.1087 13.6093 56.698 12.136C57.5367 10.096 58.364 8.64533 59.18 7.784C59.996 6.9 60.7667 6.458 61.492 6.458C62.2627 6.458 62.954 6.85467 63.566 7.648C64.2007 8.41867 64.7333 9.45 65.164 10.742C65.6173 12.0113 65.9233 13.394 66.082 14.89C66.1727 15.6607 66.2293 16.4993 66.252 17.406C66.2747 18.29 66.286 19.1627 66.286 20.024V22.676C66.286 23.0613 66.286 23.4127 66.286 23.73C66.286 24.0473 66.2973 24.308 66.32 24.512C66.4787 23.968 66.7393 23.2087 67.102 22.234C67.4647 21.2367 67.9067 20.126 68.428 18.902C68.9493 17.6553 69.5387 16.3747 70.196 15.06C70.8533 13.7453 71.556 12.4873 72.304 11.286C73.0747 10.062 73.868 8.99667 74.684 8.09C75.5227 7.16067 76.3613 6.48067 77.2 6.05C77.6987 5.80067 78.1633 5.676 78.594 5.676C79.0927 5.676 79.512 5.82333 79.852 6.118C80.192 6.39 80.362 6.798 80.362 7.342C80.362 8.158 80.192 8.974 79.852 9.79C79.512 10.5833 79.104 11.3653 78.628 12.136C78.152 12.9067 77.71 13.6547 77.302 14.38C76.5767 15.6947 75.8513 17.2133 75.126 18.936C74.4007 20.6587 73.7887 22.438 73.29 24.274C72.814 26.11 72.576 27.878 72.576 29.578C72.576 30.122 72.5987 30.6547 72.644 31.176C72.712 31.6973 72.814 32.196 72.95 32.672C73.154 33.3973 73.4033 33.896 73.698 34.168C74.0153 34.4627 74.3327 34.61 74.65 34.61C74.99 34.61 75.3073 34.508 75.602 34.304C75.8967 34.1227 76.1347 33.9187 76.316 33.692C76.4973 33.488 76.5767 33.3633 76.554 33.318C76.758 33.25 76.8373 33.3067 76.792 33.488C76.7467 33.692 76.656 33.896 76.52 34.1C76.384 34.3267 76.2933 34.4627 76.248 34.508C75.4547 35.1653 74.7407 35.494 74.106 35.494ZM83.6494 29.442C82.8334 29.442 82.1194 28.966 81.5074 28.014C80.918 27.0393 80.6234 25.5093 80.6234 23.424C80.6234 22.064 80.7934 20.976 81.1334 20.16C81.4734 19.3213 81.8927 18.7093 82.3914 18.324C82.89 17.9387 83.366 17.746 83.8194 17.746C84.2727 17.746 84.658 17.9047 84.9754 18.222C85.2927 18.5167 85.4514 18.9473 85.4514 19.514C85.4514 20.058 85.2927 20.636 84.9754 21.248C84.658 21.8373 84.2727 22.3813 83.8194 22.88C83.3887 23.356 82.958 23.6733 82.5274 23.832C82.4367 23.8773 82.3234 23.9 82.1874 23.9C82.0967 23.9 82.0514 23.866 82.0514 23.798C82.0514 23.6167 82.2327 23.4127 82.5954 23.186C83.0487 22.8687 83.4794 22.3927 83.8874 21.758C84.2954 21.1007 84.4994 20.5227 84.4994 20.024C84.4994 19.7293 84.4314 19.5027 84.2954 19.344C84.1594 19.1627 84.0007 19.072 83.8194 19.072C83.4794 19.072 83.1054 19.344 82.6974 19.888C82.312 20.4093 82.0287 21.316 81.8474 22.608C81.802 22.9707 81.7567 23.322 81.7114 23.662C81.6887 23.9793 81.6774 24.2967 81.6774 24.614C81.6774 25.8833 81.87 26.8807 82.2554 27.606C82.6407 28.3087 83.1507 28.66 83.7854 28.66C84.3294 28.66 84.9414 28.3427 85.6214 27.708C86.3014 27.0507 86.97 26.0307 87.6274 24.648C87.786 24.2853 87.9674 24.104 88.1714 24.104C88.3074 24.104 88.3754 24.1947 88.3754 24.376C88.3754 24.5347 88.33 24.7047 88.2394 24.886C87.65 26.3367 86.936 27.4587 86.0974 28.252C85.2587 29.0453 84.4427 29.442 83.6494 29.442ZM90.8656 30.598C90.3216 30.598 89.9136 30.36 89.6416 29.884C89.3696 29.4307 89.2336 28.8527 89.2336 28.15C89.2336 27.6513 89.3356 27.028 89.5396 26.28C89.7436 25.532 90.0269 24.75 90.3896 23.934C90.7523 23.118 91.1603 22.3587 91.6136 21.656C92.0669 20.9307 92.5316 20.3527 93.0076 19.922C93.5063 19.4687 93.9936 19.242 94.4696 19.242C94.8549 19.242 95.1269 19.3893 95.2856 19.684C95.4669 19.956 95.5576 20.2507 95.5576 20.568C95.5576 20.84 95.5009 21.0893 95.3876 21.316C95.2969 21.52 95.1609 21.622 94.9796 21.622C94.7983 21.622 94.6623 21.5427 94.5716 21.384C94.5036 21.2027 94.4356 21.0213 94.3676 20.84C94.3223 20.6587 94.1976 20.568 93.9936 20.568C93.5856 20.568 93.1776 20.8287 92.7696 21.35C92.3616 21.8713 91.9876 22.5287 91.6476 23.322C91.3076 24.1153 91.0356 24.9427 90.8316 25.804C90.6276 26.6427 90.5256 27.3907 90.5256 28.048C90.5256 28.524 90.5823 28.898 90.6956 29.17C90.8316 29.4647 91.0469 29.612 91.3416 29.612C91.7269 29.612 92.1123 29.374 92.4976 28.898C92.9056 28.3993 93.3023 27.7647 93.6876 26.994C94.0729 26.2007 94.4243 25.3733 94.7416 24.512C95.0816 23.6507 95.3649 22.846 95.5916 22.098C95.8409 21.3273 96.0336 20.7153 96.1696 20.262C96.3509 18.6753 96.5663 17.0773 96.8156 15.468C97.0876 13.8587 97.4843 12.2947 98.0056 10.776C98.0736 10.5267 98.1756 10.3113 98.3116 10.13C98.4703 9.94867 98.6289 9.858 98.7876 9.858C98.9689 9.858 99.1163 9.98267 99.2296 10.232C99.3656 10.4813 99.4336 10.7647 99.4336 11.082C99.4336 11.3313 99.3883 11.592 99.2976 11.864C99.2069 12.136 99.0936 12.4987 98.9576 12.952C98.7989 13.496 98.5949 14.2213 98.3456 15.128C98.1189 16.012 97.8809 17.0207 97.6316 18.154C97.3823 19.2647 97.1669 20.4547 96.9856 21.724C96.8269 22.9707 96.7476 24.2173 96.7476 25.464C96.7476 26.416 96.8156 27.0847 96.9516 27.47C97.0876 27.8553 97.2689 28.048 97.4956 28.048C97.7449 28.048 98.0169 27.8893 98.3116 27.572C98.6289 27.2547 98.9349 26.8693 99.2296 26.416C99.5469 25.9627 99.8303 25.5093 100.08 25.056C100.329 24.58 100.522 24.206 100.658 23.934C100.907 23.4353 101.1 23.186 101.236 23.186C101.326 23.186 101.372 23.288 101.372 23.492C101.372 23.6507 101.338 23.8207 101.27 24.002C101.134 24.2967 101.043 24.5233 100.998 24.682C100.952 24.818 100.896 24.954 100.828 25.09C100.782 25.226 100.669 25.4413 100.488 25.736C100.329 26.008 100.08 26.382 99.7396 26.858C99.3996 27.3113 99.0143 27.7307 98.5836 28.116C98.1529 28.4787 97.7223 28.66 97.2916 28.66C96.8609 28.66 96.5323 28.4787 96.3056 28.116C96.1016 27.7533 95.9656 27.2887 95.8976 26.722C95.8523 26.1327 95.8296 25.532 95.8296 24.92C95.8296 24.172 95.8636 23.3787 95.9316 22.54C95.7729 23.084 95.5576 23.73 95.2856 24.478C95.0136 25.2033 94.7076 25.94 94.3676 26.688C94.0276 27.436 93.6649 28.116 93.2796 28.728C92.9623 29.2267 92.6109 29.6573 92.2256 30.02C91.8403 30.4053 91.3869 30.598 90.8656 30.598ZM110.817 31.244C109.389 31.244 108.052 30.9493 106.805 30.36C105.558 29.7707 104.55 28.8187 103.779 27.504C103.031 26.1893 102.657 24.4553 102.657 22.302C102.657 21.826 102.668 21.3387 102.691 20.84C102.736 20.3187 102.804 19.786 102.895 19.242C102.736 19.2193 102.578 19.2193 102.419 19.242C102.26 19.242 102.124 19.242 102.011 19.242C101.807 19.242 101.648 19.1967 101.535 19.106C101.422 19.0153 101.354 18.8227 101.331 18.528C101.331 18.2107 101.399 17.916 101.535 17.644C101.694 17.372 101.852 17.3267 102.011 17.508C102.26 17.712 102.714 17.8367 103.371 17.882C103.824 16.2953 104.504 14.8333 105.411 13.496C106.34 12.1587 107.394 10.9573 108.573 9.892C109.774 8.804 111.01 7.886 112.279 7.138C113.571 6.36733 114.806 5.78933 115.985 5.404C117.164 4.996 118.206 4.792 119.113 4.792C119.884 4.792 120.496 4.95067 120.949 5.268C121.425 5.58533 121.663 6.084 121.663 6.764C121.663 7.05867 121.618 7.35333 121.527 7.648C121.346 8.41867 121.051 9.03067 120.643 9.484C120.258 9.93733 119.974 10.164 119.793 10.164C119.68 10.164 119.623 10.1073 119.623 9.994C119.623 9.88067 119.714 9.64267 119.895 9.28C120.235 8.668 120.405 8.13533 120.405 7.682C120.405 7.11533 120.178 6.696 119.725 6.424C119.272 6.12933 118.671 5.982 117.923 5.982C116.971 5.982 115.872 6.22 114.625 6.696C113.378 7.172 112.109 7.89733 110.817 8.872C109.525 9.824 108.335 11.048 107.247 12.544C106.182 14.0173 105.354 15.774 104.765 17.814C105.196 17.7687 105.638 17.7233 106.091 17.678C106.544 17.61 106.952 17.5307 107.315 17.44C110.307 16.7827 112.562 16.318 114.081 16.046C115.622 15.7513 116.586 15.604 116.971 15.604C117.311 15.604 117.288 15.6833 116.903 15.842C116.518 16.0007 115.86 16.2273 114.931 16.522C114.024 16.794 112.914 17.1 111.599 17.44C110.284 17.7573 108.856 18.086 107.315 18.426C106.93 18.5167 106.476 18.63 105.955 18.766C105.456 18.902 104.946 19.0267 104.425 19.14C104.289 20.1147 104.221 21.0327 104.221 21.894C104.221 23.934 104.561 25.5887 105.241 26.858C105.921 28.1047 106.816 29.0113 107.927 29.578C109.038 30.1673 110.239 30.462 111.531 30.462C112.846 30.462 114.149 30.2013 115.441 29.68C116.756 29.1587 117.946 28.4333 119.011 27.504C120.076 26.552 120.881 25.4527 121.425 24.206C121.629 23.7753 121.81 23.56 121.969 23.56C122.082 23.56 122.139 23.6507 122.139 23.832C122.139 23.9453 122.105 24.104 122.037 24.308C121.697 25.3053 121.142 26.2347 120.371 27.096C119.6 27.9347 118.694 28.66 117.651 29.272C116.608 29.9067 115.498 30.394 114.319 30.734C113.14 31.074 111.973 31.244 110.817 31.244ZM122.75 31.72C122.591 31.72 122.535 31.5953 122.58 31.346C122.739 30.1447 123.079 28.8753 123.6 27.538C124.144 26.2007 124.801 24.9087 125.572 23.662C125.209 22.8687 124.915 22.1433 124.688 21.486C124.484 20.806 124.337 20.3187 124.246 20.024C124.11 19.48 124.042 19.0267 124.042 18.664C124.042 18.3013 124.201 18.12 124.518 18.12C124.79 18.12 125.051 18.2447 125.3 18.494C125.572 18.7433 125.765 19.004 125.878 19.276C126.082 19.7067 126.207 20.1033 126.252 20.466C126.297 20.8287 126.354 21.2027 126.422 21.588L126.524 22.2C127.068 21.4293 127.635 20.704 128.224 20.024C128.836 19.344 129.448 18.7433 130.06 18.222C130.128 18.154 130.207 18.12 130.298 18.12C130.457 18.12 130.581 18.2107 130.672 18.392C130.785 18.5507 130.842 18.7433 130.842 18.97C130.842 19.174 130.774 19.344 130.638 19.48C129.981 20.0467 129.323 20.6813 128.666 21.384C128.009 22.0867 127.385 22.8233 126.796 23.594C126.909 24.1607 127.091 24.7387 127.34 25.328C127.589 25.8947 127.997 26.5747 128.564 27.368C129.017 28.0027 129.357 28.32 129.584 28.32C129.765 28.32 129.879 28.1953 129.924 27.946C129.992 27.674 130.026 27.3453 130.026 26.96C130.026 26.4387 129.981 25.872 129.89 25.26C129.822 24.648 129.743 24.0927 129.652 23.594C129.584 23.0953 129.539 22.7893 129.516 22.676C129.493 22.5853 129.482 22.506 129.482 22.438C129.482 22.3473 129.482 22.2793 129.482 22.234C129.482 22.03 129.527 21.928 129.618 21.928C129.686 21.928 129.777 21.996 129.89 22.132C130.003 22.268 130.083 22.4267 130.128 22.608C130.264 22.9707 130.389 23.4467 130.502 24.036C130.638 24.6027 130.751 25.1693 130.842 25.736C130.933 26.28 130.978 26.7107 130.978 27.028C130.978 27.504 130.887 27.946 130.706 28.354C130.547 28.762 130.275 28.966 129.89 28.966C129.391 28.966 128.893 28.728 128.394 28.252C127.918 27.776 127.476 27.2093 127.068 26.552C126.66 25.872 126.309 25.2487 126.014 24.682C125.334 25.6793 124.756 26.7107 124.28 27.776C123.827 28.8413 123.521 29.9067 123.362 30.972C123.339 31.1987 123.26 31.38 123.124 31.516C122.988 31.652 122.863 31.72 122.75 31.72Z" fill="#1749A6"/>
<path d="M26.1596 42.9086C18.2757 45.1766 13.9463 34.0667 12.2934 30.1035C8.99707 22.1867 0.399349 16.6646 1.03326 10.8373C1.66717 5.01003 8.82803 5.59229 8.82803 5.59229" stroke="#BDBDBD" stroke-width="0.75" stroke-miterlimit="10" stroke-linejoin="round"/>
<path d="M25.6667 42.9085C33.5976 40.8049 31.015 29.3334 30.3952 25.0839C29.1602 16.5942 33.7009 7.44235 30.1651 2.77018C26.6293 -1.90198 20.7832 2.27245 20.7832 2.27245" stroke="#BDBDBD" stroke-width="0.75" stroke-miterlimit="10" stroke-linejoin="round"/>
<path d="M45.5481 19.0453C49.5029 19.0453 52.7089 15.8393 52.7089 11.8844C52.7089 7.9296 49.5029 4.72357 45.5481 4.72357C41.5932 4.72357 38.3872 7.9296 38.3872 11.8844C38.3872 15.8393 41.5932 19.0453 45.5481 19.0453Z" fill="#878787"/>
<path d="M45.8015 17.6648C49.2792 17.6648 52.0984 14.8456 52.0984 11.3679C52.0984 7.89024 49.2792 5.07104 45.8015 5.07104C42.3238 5.07104 39.5046 7.89024 39.5046 11.3679C39.5046 14.8456 42.3238 17.6648 45.8015 17.6648Z" fill="#BDBDBD"/>
<path d="M30.3106 24.4218C29.8927 27.5867 35.072 39.1473 27.0377 42.3122C18.0409 45.8621 14.6835 32.6627 12.2981 30.1035" stroke="#1749A6" stroke-miterlimit="10"/>
<path d="M13.0493 31.2822C13.0493 31.2822 18.1065 36.6164 24.0371 34.17C29.6578 31.8503 30.5312 25.6943 30.5312 25.6943" stroke="#1749A6" stroke-width="0.625" stroke-miterlimit="10"/>
<path opacity="0.22" d="M45.1348 6.81317C42.6743 7.38604 41.1482 9.84186 41.7164 12.3024C41.8009 12.6686 41.9324 13.0255 42.1061 13.3636L42.4254 13.9928C41.5239 15.1714 40.7913 15.6222 40.5425 16.9886C41.1811 17.6131 41.9277 18.1109 42.7447 18.4584C42.7447 18.4537 42.7494 18.449 42.7494 18.4443C42.7494 18.449 42.7541 18.4537 42.7541 18.4631C44.1018 19.0359 45.6373 19.2097 47.1774 18.8528C47.3512 18.8105 47.5155 18.7589 47.6799 18.7072L47.5343 17.3925C47.5343 17.3925 47.7221 15.7255 47.7644 15.6363C47.8724 15.425 48.3091 15.3123 48.5345 15.1808C49.0792 14.8521 49.5534 14.406 49.9197 13.8848C50.2849 13.3585 50.5362 12.7616 50.6575 12.1326C50.7788 11.5035 50.7674 10.856 50.624 10.2316C50.0512 7.77108 47.5906 6.2403 45.1348 6.81317Z" fill="#212121"/>
<path d="M26.0986 41.8426C30.6018 52.159 37.5043 53.6193 42.6038 52.7318C47.0835 51.9477 53.0141 47.9329 53 40.6546C52.9812 31.8832 47.1304 32.4373 43.9609 26.8166C40.0118 19.8107 45.393 13.3777 45.393 13.3777" stroke="#1749A6" stroke-miterlimit="10"/>
<path opacity="0.22" d="M42.2141 14.9554C42.2141 14.9554 43.1063 14.4999 43.9609 14.9883C45.3132 15.7584 45.4447 16.8571 45.4447 16.8571C45.4447 16.8571 46.2618 15.2324 46.6985 14.7911C47.1304 14.345 44.083 12.1333 43.3927 12.9832C42.7025 13.8331 42.2141 14.9554 42.2141 14.9554Z" fill="#212121"/>
<path d="M10.7957 3.34307C10.0913 3.34777 9.47148 3.68585 9.06296 4.19768L8.4807 3.7375C7.95009 3.31959 7.17062 3.69994 7.17531 4.37611L7.1941 6.81315C7.19879 7.48932 7.98296 7.86028 8.50418 7.43297L9.07235 6.9728C9.48557 7.48463 10.1148 7.81802 10.8238 7.81332C12.0588 7.80393 13.0543 6.79437 13.0449 5.55941C13.0355 4.32446 12.0306 3.33368 10.7957 3.34307ZM22.6756 2.48846L21.4313 0.394207C21.0838 -0.188053 20.2198 -0.108227 19.985 0.520989L19.7268 1.21594C19.1116 0.985858 18.4073 1.01873 17.8016 1.38029C17.5488 1.53025 17.3282 1.72858 17.1522 1.96392C16.9762 2.19925 16.8484 2.46698 16.776 2.75178C16.7036 3.03658 16.688 3.33286 16.7303 3.62367C16.7725 3.91448 16.8717 4.1941 17.0221 4.44655C17.172 4.69926 17.3704 4.91992 17.6057 5.0959C17.841 5.27188 18.1088 5.39973 18.3936 5.47213C18.6784 5.54453 18.9746 5.56006 19.2655 5.51783C19.5563 5.4756 19.8359 5.37644 20.0883 5.22602C20.6988 4.86446 21.065 4.25402 21.1542 3.60133L21.8774 3.69994C22.5441 3.78916 23.0231 3.07072 22.6756 2.48846Z" fill="#616161"/>
<path d="M46.6513 14.791C49.0164 14.791 50.9337 12.8737 50.9337 10.5086C50.9337 8.1435 49.0164 6.2262 46.6513 6.2262C44.2862 6.2262 42.3689 8.1435 42.3689 10.5086C42.3689 12.8737 44.2862 14.791 46.6513 14.791Z" fill="#424242"/>
<path d="M46.8675 13.4998C48.7036 13.4998 50.192 12.0113 50.192 10.1753C50.192 8.33917 48.7036 6.85074 46.8675 6.85074C45.0314 6.85074 43.543 8.33917 43.543 10.1753C43.543 12.0113 45.0314 13.4998 46.8675 13.4998Z" fill="#D1D1D1"/>
<path d="M17.623 3.8455C17.2332 3.28672 17.3084 2.24429 17.9798 1.77003C18.6513 1.29577 19.6656 1.50237 20.0553 2.12689C20.492 2.82185 19.351 2.19733 18.6795 2.67159C18.008 3.14585 18.0925 4.52167 17.623 3.8455ZM9.47134 4.85037C9.64038 4.18828 10.4715 3.56376 11.2698 3.76098C12.068 3.95819 12.5752 4.85506 12.3592 5.55941C12.1197 6.34358 11.8426 5.07106 11.0444 4.87854C10.2508 4.68132 9.26943 5.64863 9.47134 4.85037Z" fill="#757575"/>
</svg>
