<svg width="24" height="24" viewBox="0 0 24 24" fill="none" xmlns="http://www.w3.org/2000/svg">
<path d="M23.6252 0.376818C23.4499 0.201573 23.2277 0.0807285 22.9853 0.0288331C22.743 -0.0230622 22.4908 -0.0037961 22.2591 0.0843122L0.828473 8.19573H0.824187C0.577089 8.29077 0.365353 8.45976 0.217897 8.67964C0.0704411 8.89952 -0.00554567 9.15955 0.000315242 9.42423C0.00617616 9.68891 0.093599 9.94533 0.250644 10.1585C0.407688 10.3716 0.626697 10.5311 0.877759 10.6151L0.899724 10.622L8.25523 13.763C8.3987 13.8065 8.55108 13.8117 8.69716 13.778C8.84325 13.7442 8.97792 13.6727 9.08775 13.5707L20.893 2.57061C20.9282 2.53544 20.9699 2.50753 21.0159 2.4885C21.0618 2.46946 21.1111 2.45966 21.1609 2.45966C21.2106 2.45966 21.2599 2.46946 21.3058 2.4885C21.3518 2.50753 21.3935 2.53544 21.4287 2.57061C21.4639 2.60579 21.4918 2.64755 21.5108 2.69351C21.5299 2.73947 21.5397 2.78873 21.5397 2.83848C21.5397 2.88822 21.5299 2.93748 21.5108 2.98344C21.4918 3.0294 21.4639 3.07116 21.4287 3.10634L10.4281 14.9062C10.3261 15.016 10.2546 15.1507 10.2208 15.2968C10.1871 15.4429 10.1923 15.5953 10.2358 15.7387L13.3778 23.0985C13.3811 23.1092 13.3843 23.1189 13.388 23.1291C13.5594 23.6257 13.9934 23.9761 14.5179 23.9996H14.5714C14.8362 24.0011 15.0953 23.923 15.3151 23.7752C15.5348 23.6275 15.705 23.4171 15.8036 23.1714L23.9139 1.74667C24.0033 1.51485 24.0236 1.2621 23.9724 1.019C23.9211 0.775892 23.8005 0.55284 23.6252 0.376818Z" fill="#484C56"/>
</svg>
