<svg width="22" height="22" viewBox="0 0 22 22" fill="none" xmlns="http://www.w3.org/2000/svg">
<path d="M17.6881 11.009C17.6881 14.1877 17.6881 15.7771 16.7006 16.7646C15.7131 17.7521 14.1238 17.7521 10.9451 17.7521C7.76638 17.7521 6.17702 17.7521 5.18952 16.7646C4.20203 15.7771 4.20203 14.1877 4.20203 11.009C4.20203 7.83032 4.20203 6.24096 5.18952 5.25347C6.17702 4.26597 7.76638 4.26597 10.9451 4.26597" stroke="#02040F" stroke-opacity="0.6" stroke-width="1.01146" stroke-linecap="round"/>
<path d="M13.7468 5.23311L15.3364 6.61069C16.4305 7.55899 16.9776 8.03314 16.9776 8.64896C16.9776 9.26477 16.4305 9.73892 15.3364 10.6872L13.7468 12.0648C13.2657 12.4818 13.0251 12.6903 12.828 12.6003C12.6309 12.5103 12.6309 12.1919 12.6309 11.5552V10.5274C10.608 10.5274 8.41649 11.4666 7.57361 13.0319C7.57361 8.02281 10.5705 6.77053 12.6309 6.77053V5.74267C12.6309 5.10598 12.6309 4.78764 12.828 4.69763C13.0251 4.60762 13.2657 4.81612 13.7468 5.23311Z" stroke="#02040F" stroke-opacity="0.6" stroke-width="1.01146" stroke-linecap="round" stroke-linejoin="round"/>
</svg>
