<svg width="39" height="38" viewBox="0 0 39 38" fill="none" xmlns="http://www.w3.org/2000/svg">
<path opacity="0.5" d="M18.6068 31.651H19.6249C23.1275 31.651 24.8788 31.651 26.0175 30.5101C27.1561 29.3693 27.2726 27.4979 27.5056 23.7551L27.8413 18.3622C27.9678 16.3314 28.031 15.316 27.4597 14.6726C26.8885 14.0291 25.9238 14.0291 23.9945 14.0291H14.2372C12.3079 14.0291 11.3432 14.0291 10.772 14.6726C10.2007 15.316 10.2639 16.3314 10.3904 18.3622L10.7261 23.7551C10.9591 27.4979 11.0756 29.3693 12.2142 30.5101C13.3529 31.651 15.1042 31.651 18.6068 31.651Z" fill="#082567"/>
<path d="M7.7876 11.7215C7.7876 11.1422 8.22233 10.6726 8.7586 10.6726L12.1121 10.672C12.7784 10.6538 13.3662 10.1961 13.5929 9.51904C13.5989 9.50124 13.6057 9.47928 13.6303 9.39961L13.7748 8.93125C13.8632 8.64409 13.9403 8.39391 14.0481 8.17028C14.4739 7.28683 15.2619 6.67335 16.1724 6.51629C16.4029 6.47653 16.647 6.4767 16.9271 6.47689H21.305C21.5851 6.4767 21.8292 6.47653 22.0597 6.51629C22.9702 6.67335 23.7581 7.28683 24.184 8.17028C24.2918 8.39391 24.3688 8.64409 24.4573 8.93125L24.6018 9.39961C24.6263 9.47928 24.6332 9.50124 24.6392 9.51904C24.8659 10.1961 25.5703 10.6543 26.2366 10.6726H29.4733C30.0095 10.6726 30.4443 11.1422 30.4443 11.7215C30.4443 12.3008 30.0095 12.7704 29.4733 12.7704H8.7586C8.22233 12.7704 7.7876 12.3008 7.7876 11.7215Z" fill="#082567"/>
</svg>
